REM DIRINDEX 1\2,1\3,1\4
REM DIRNAME folder01,folder02,folder03,folder04
TITLE ""
FILE "076 076_TOEFL_3900.mp3" MP3
  TRACK 01 AUDIO
    TITLE "2:cjc151_3294"
    INDEX 01 00:00:00
  TRACK 02 AUDIO
    TITLE "0:"
    INDEX 01 00:01:30
  TRACK 03 AUDIO
    TITLE "3:cjc151_3295"
    INDEX 01 00:03:08
  TRACK 04 AUDIO
    TITLE "0:"
    INDEX 01 00:07:05
  TRACK 05 AUDIO
    TITLE "2:cjc151_3296"
    INDEX 01 00:08:56
  TRACK 06 AUDIO
    TITLE "0:"
    INDEX 01 00:09:57
  TRACK 07 AUDIO
    TITLE "3:cjc151_3297"
    INDEX 01 00:11:35
  TRACK 08 AUDIO
    TITLE "0:"
    INDEX 01 00:15:19
  TRACK 09 AUDIO
    TITLE "2:cjc151_3298"
    INDEX 01 00:16:73
  TRACK 10 AUDIO
    TITLE "0:"
    INDEX 01 00:18:25
  TRACK 11 AUDIO
    TITLE "3:cjc151_3299"
    INDEX 01 00:20:04
  TRACK 12 AUDIO
    TITLE "0:"
    INDEX 01 00:24:04
  TRACK 13 AUDIO
    TITLE "2:cjc151_3300"
    INDEX 01 00:25:58
  TRACK 14 AUDIO
    TITLE "0:"
    INDEX 01 00:26:67
  TRACK 15 AUDIO
    TITLE "3:cjc151_3301"
    INDEX 01 00:28:39
  TRACK 16 AUDIO
    TITLE "0:"
    INDEX 01 00:31:24
  TRACK 17 AUDIO
    TITLE "2:cjc151_3302"
    INDEX 01 00:33:03
  TRACK 18 AUDIO
    TITLE "0:"
    INDEX 01 00:34:16
  TRACK 19 AUDIO
    TITLE "3:cjc151_3303"
    INDEX 01 00:35:70
  TRACK 20 AUDIO
    TITLE "0:"
    INDEX 01 00:40:11
  TRACK 21 AUDIO
    TITLE "2:cjc151_3304"
    INDEX 01 00:41:63
  TRACK 22 AUDIO
    TITLE "0:"
    INDEX 01 00:43:03
  TRACK 23 AUDIO
    TITLE "3:cjc151_3305"
    INDEX 01 00:44:60
  TRACK 24 AUDIO
    TITLE "0:"
    INDEX 01 00:47:58
  TRACK 25 AUDIO
    TITLE "2:cjc151_3306"
    INDEX 01 00:49:35
  TRACK 26 AUDIO
    TITLE "0:"
    INDEX 01 00:50:33
  TRACK 27 AUDIO
    TITLE "3:cjc151_3307"
    INDEX 01 00:52:10
  TRACK 28 AUDIO
    TITLE "0:"
    INDEX 01 00:55:18
  TRACK 29 AUDIO
    TITLE "2:cjc151_3308"
    INDEX 01 00:56:74
  TRACK 30 AUDIO
    TITLE "0:"
    INDEX 01 00:57:64
  TRACK 31 AUDIO
    TITLE "3:cjc151_3309"
    INDEX 01 00:59:51
  TRACK 32 AUDIO
    TITLE "0:"
    INDEX 01 01:03:59
  TRACK 33 AUDIO
    TITLE "2:cjc151_3310"
    INDEX 01 01:05:38
  TRACK 34 AUDIO
    TITLE "0:"
    INDEX 01 01:06:38
  TRACK 35 AUDIO
    TITLE "3:cjc151_3311"
    INDEX 01 01:08:15
  TRACK 36 AUDIO
    TITLE "0:"
    INDEX 01 01:11:58
  TRACK 37 AUDIO
    TITLE "2:cjc151_3312"
    INDEX 01 01:13:38
  TRACK 38 AUDIO
    TITLE "0:"
    INDEX 01 01:14:45
  TRACK 39 AUDIO
    TITLE "3:cjc151_3313"
    INDEX 01 01:16:20
  TRACK 40 AUDIO
    TITLE "0:"
    INDEX 01 01:19:32
  TRACK 41 AUDIO
    TITLE "2:cjc151_3314"
    INDEX 01 01:21:12
  TRACK 42 AUDIO
    TITLE "0:"
    INDEX 01 01:22:09
  TRACK 43 AUDIO
    TITLE "3:cjc151_3315"
    INDEX 01 01:24:00
  TRACK 44 AUDIO
    TITLE "0:"
    INDEX 01 01:27:46
  TRACK 45 AUDIO
    TITLE "2:cjc151_3316"
    INDEX 01 01:29:25
  TRACK 46 AUDIO
    TITLE "0:"
    INDEX 01 01:30:17
  TRACK 47 AUDIO
    TITLE "3:cjc151_3317"
    INDEX 01 01:31:67
  TRACK 48 AUDIO
    TITLE "0:"
    INDEX 01 01:34:24
  TRACK 49 AUDIO
    TITLE "2:cjc151_3318"
    INDEX 01 01:36:05
  TRACK 50 AUDIO
    TITLE "0:"
    INDEX 01 01:37:24
  TRACK 51 AUDIO
    TITLE "3:cjc151_3319"
    INDEX 01 01:39:04
  TRACK 52 AUDIO
    TITLE "0:"
    INDEX 01 01:42:65
  TRACK 53 AUDIO
    TITLE "2:cjc151_3320"
    INDEX 01 01:44:44
  TRACK 54 AUDIO
    TITLE "0:"
    INDEX 01 01:45:49
  TRACK 55 AUDIO
    TITLE "3:cjc151_3321"
    INDEX 01 01:47:50
  TRACK 56 AUDIO
    TITLE "0:"
    INDEX 01 01:50:72
  TRACK 57 AUDIO
    TITLE "2:cjc151_3322"
    INDEX 01 01:52:49
  TRACK 58 AUDIO
    TITLE "0:"
    INDEX 01 01:53:55
  TRACK 59 AUDIO
    TITLE "3:cjc151_3323"
    INDEX 01 01:55:32
  TRACK 60 AUDIO
    TITLE "0:"
    INDEX 01 01:59:34
  TRACK 61 AUDIO
    TITLE "2:cjc151_3324"
    INDEX 01 02:01:13
  TRACK 62 AUDIO
    TITLE "0:"
    INDEX 01 02:02:22
  TRACK 63 AUDIO
    TITLE "3:cjc151_3325"
    INDEX 01 02:04:00
  TRACK 64 AUDIO
    TITLE "0:"
    INDEX 01 02:08:01
  TRACK 65 AUDIO
    TITLE "2:cjc151_3326"
    INDEX 01 02:09:56
  TRACK 66 AUDIO
    TITLE "0:"
    INDEX 01 02:10:61
  TRACK 67 AUDIO
    TITLE "3:cjc151_3327"
    INDEX 01 02:12:36
  TRACK 68 AUDIO
    TITLE "0:"
    INDEX 01 02:15:41
  TRACK 69 AUDIO
    TITLE "2:cjc151_3328"
    INDEX 01 02:17:20
  TRACK 70 AUDIO
    TITLE "0:"
    INDEX 01 02:18:29
  TRACK 71 AUDIO
    TITLE "3:cjc151_3329"
    INDEX 01 02:20:09
  TRACK 72 AUDIO
    TITLE "0:"
    INDEX 01 02:24:28
  TRACK 73 AUDIO
    TITLE "2:cjc151_3330"
    INDEX 01 02:26:07
  TRACK 74 AUDIO
    TITLE "0:"
    INDEX 01 02:27:09
  TRACK 75 AUDIO
    TITLE "3:cjc151_3331"
    INDEX 01 02:28:63
  TRACK 76 AUDIO
    TITLE "0:"
    INDEX 01 02:32:37
  TRACK 77 AUDIO
    TITLE "2:cjc151_3332"
    INDEX 01 02:34:17
  TRACK 78 AUDIO
    TITLE "0:"
    INDEX 01 02:35:28
  TRACK 79 AUDIO
    TITLE "3:cjc151_3333"
    INDEX 01 02:37:05
  TRACK 80 AUDIO
    TITLE "0:"
    INDEX 01 02:40:15
  TRACK 81 AUDIO
    TITLE "2:cjc151_3334"
    INDEX 01 02:41:69
  TRACK 82 AUDIO
    TITLE "0:"
    INDEX 01 02:42:71
  TRACK 83 AUDIO
    TITLE "3:cjc151_3335"
    INDEX 01 02:44:50
  TRACK 84 AUDIO
    TITLE "0:"
    INDEX 01 02:48:58
  TRACK 85 AUDIO
    TITLE "2:cjc151_3336"
    INDEX 01 02:50:35
  TRACK 86 AUDIO
    TITLE "0:"
    INDEX 01 02:51:29
  TRACK 87 AUDIO
    TITLE "3:cjc151_3337"
    INDEX 01 02:53:08
  TRACK 88 AUDIO
    TITLE "0:"
    INDEX 01 02:55:60
